<svg width="36" height="36" viewBox="0 0 36 36" fill="none" xmlns="http://www.w3.org/2000/svg">
<path d="M17.688 9C12.726 9 8.812 13.038 8.812 18C8.812 22.962 12.912 27 17.874 27C19.69 27 21.472 26.46 22.968 25.444C23.0775 25.3712 23.1716 25.2775 23.2448 25.1683C23.318 25.0591 23.369 24.9366 23.3949 24.8077C23.4207 24.6787 23.4208 24.546 23.3953 24.417C23.3697 24.288 23.319 24.1653 23.246 24.056C23.173 23.9474 23.0793 23.8544 22.9701 23.7822C22.8609 23.7101 22.7386 23.6603 22.6101 23.6358C22.4816 23.6112 22.3494 23.6124 22.2214 23.6392C22.0933 23.666 21.9719 23.718 21.864 23.792C20.7063 24.5828 19.336 25.004 17.934 25C14.074 25 10.936 21.86 10.936 18C10.936 14.14 13.828 11 17.688 11C21.548 11 24.438 14.14 24.438 18V18.5C24.438 18.8978 24.28 19.2794 23.9987 19.5607C23.7174 19.842 23.3358 20 22.938 20C22.5402 20 22.1586 19.842 21.8773 19.5607C21.596 19.2794 21.438 18.8978 21.438 18.5V15C21.438 14.448 21.24 14 20.688 14C20.278 14 20.052 14.248 19.896 14.602C19.2946 14.2112 18.5932 14.0022 17.876 14C15.668 14 13.908 15.792 13.908 18C13.9122 18.7969 14.1533 19.5745 14.6008 20.234C15.0482 20.8934 15.6817 21.4048 16.4207 21.7031C17.1597 22.0014 17.9707 22.0731 18.7505 21.9091C19.5304 21.745 20.2438 21.3527 20.8 20.782C21.438 21.52 22.128 22 23.184 22C25.114 22 26.438 20.43 26.438 18.5V18C26.438 13.038 22.65 9 17.688 9ZM17.938 20C16.836 20 15.938 19.102 15.938 18C15.938 16.898 16.836 16 17.938 16C19.04 16 19.938 16.898 19.938 18C19.938 19.102 19.04 20 17.938 20ZM18 36C8.074 36 0 27.926 0 18C0 8.074 8.074 0 18 0C27.926 0 36 8.074 36 18C36 27.926 27.926 36 18 36ZM18 4C10.282 4 4 10.282 4 18C4 25.718 10.282 32 18 32C25.718 32 32 25.718 32 18C32 10.282 25.718 4 18 4Z" fill="#191847"/>
</svg>
