<svg width="36" height="36" viewBox="0 0 36 36" fill="none" xmlns="http://www.w3.org/2000/svg">
<path d="M14.066 24.6H10.866V14.202H14.066V24.6ZM12.466 12.868C11.312 12.868 10.734 12.334 10.734 11.268C10.7304 11.0541 10.7733 10.8419 10.8596 10.6461C10.9459 10.4504 11.0736 10.2756 11.234 10.134C11.5675 9.82285 12.0101 9.65546 12.466 9.668C13.62 9.668 14.198 10.204 14.198 11.27C14.198 12.336 13.622 12.868 12.466 12.868ZM25.934 24.6H22.668V18.8C22.668 17.29 22.132 16.534 21.066 16.534C20.222 16.534 19.668 16.956 19.398 17.8C19.312 17.934 19.266 18.202 19.266 18.6V24.6H16V17.534C16 15.934 15.976 14.824 15.934 14.202H18.734L18.934 15.6C19.668 14.488 20.734 13.934 22.2 13.934C23.314 13.934 24.212 14.322 24.9 15.1C25.592 15.878 25.936 17 25.936 18.468V24.6H25.934ZM18 36C8.074 36 0 27.926 0 18C0 8.074 8.074 0 18 0C27.926 0 36 8.074 36 18C36 27.926 27.926 36 18 36ZM18 4C10.282 4 4 10.282 4 18C4 25.718 10.282 32 18 32C25.718 32 32 25.718 32 18C32 10.282 25.718 4 18 4Z" fill="#191847"/>
</svg>
