<svg width="36" height="36" viewBox="0 0 36 36" fill="none" xmlns="http://www.w3.org/2000/svg">
<path d="M24.558 14.566C25.274 14.124 25.752 13.524 25.984 12.758C25.3281 13.1131 24.6241 13.3711 23.894 13.524C23.5955 13.1956 23.23 12.9352 22.8221 12.7602C22.4143 12.5853 21.9737 12.5 21.53 12.51C20.602 12.51 19.82 12.836 19.18 13.468C18.8716 13.7688 18.6278 14.1293 18.4635 14.5275C18.2991 14.9257 18.2176 15.3533 18.224 15.784C18.224 16.058 18.258 16.304 18.328 16.512C15.592 16.416 13.33 15.284 11.546 13.1C11.2534 13.5974 11.0968 14.163 11.092 14.74C11.092 15.896 11.58 16.812 12.552 17.486C12.0413 17.4515 11.5436 17.309 11.092 17.068C11.092 17.894 11.334 18.584 11.822 19.192C12.308 19.792 12.936 20.176 13.7 20.338C13.4157 20.41 13.1233 20.4456 12.83 20.444C12.6298 20.4555 12.4292 20.4304 12.238 20.37C12.446 21.044 12.83 21.588 13.386 22.006C13.94 22.426 14.58 22.646 15.3 22.666C14.1443 23.5848 12.7063 24.0753 11.23 24.054C10.854 24.054 10.59 24.05 10.43 24.02C11.9293 24.9952 13.6835 25.5053 15.472 25.486C17.374 25.486 19.056 25.004 20.516 24.04C21.976 23.082 23.058 21.9 23.75 20.506C24.4352 19.1591 24.7922 17.6692 24.792 16.158V15.74C25.464 15.234 26.01 14.664 26.428 14.032C25.833 14.2973 25.2034 14.4771 24.558 14.566ZM18 36C13.02 36 8.73 34.22 5.248 30.708C1.766 27.206 0 22.93 0 18C0 13.024 1.768 8.732 5.254 5.25C8.734 1.768 13.022 0 18 0C22.932 0 27.208 1.766 30.708 5.248C34.22 8.732 36 13.024 36 18C36 22.93 34.222 27.208 30.712 30.714C27.21 34.22 22.934 36 18 36ZM18 4C14.068 4 10.824 5.334 8.084 8.08C5.334 10.824 4 14.068 4 18C4 21.888 5.336 25.124 8.086 27.89C10.83 30.656 14.072 32 18 32C21.886 32 25.12 30.654 27.884 27.886C30.654 25.118 32 21.882 32 18C32 14.074 30.656 10.83 27.89 8.086C25.124 5.336 21.89 4 18 4Z" fill="#191847"/>
</svg>
